# xmcd
#
# Track frame offsets:
#	150
#	15171
#	29518
#	44552
#	58654
#	73963
#	89972
#	100619
#	116534
#	129255
#	142771
#	156772
#	171589
#	182712
#
# Disc length: 2631 seconds
#
# Revision: 1
# Processed by: cddbd v1.5.2PL0 Copyright (c) Steve Scherf et al.
# Submitted via: audiograbber 1.83.01
#
DISCID=c10a450e
DTITLE=аццекопоукос ламыкгс [2001] CD1 - о дийос лас тсиццамос [йасетима 1]
DYEAR=2001
DGENRE=
TTITLE0=йакг тувг
TTITLE1=г дипяосыпг
TTITLE2=йаме лоу тетоиа
TTITLE3=йатгцоягсам елема
TTITLE4=йати леса лоу лоу кееи пыс де л' ацапас
TTITLE5=лацйака
TTITLE6=лафи ха фгсоуле
TTITLE7=ламокиа лоу
TTITLE8=ле баллема та веикг
TTITLE9=ле лисгсес йи есу
TTITLE10=лес стгс пемтекгс та боума
TTITLE11=лиа жымг дийаиосумгс
TTITLE12=лиа жытиа
TTITLE13=лас выяифеи г фыг
EXTD=
EXTT0=
EXTT1=
EXTT2=
EXTT3=
EXTT4=
EXTT5=
EXTT6=
EXTT7=
EXTT8=
EXTT9=
EXTT10=
EXTT11=
EXTT12=
EXTT13=
PLAYORDER=
